# Blender v2.83.4 OBJ File: 'TestModels.blend'
# www.blender.org
o Cube.002
v -0.944000 -1.000000 0.944000
v -0.944000 -0.944000 1.000000
v -1.000000 -0.944000 0.944000
v -0.944000 0.944000 1.000000
v -0.944000 1.000000 0.944000
v -1.000000 0.944000 0.944000
v -0.944000 -1.000000 -0.944000
v -1.000000 -0.944000 -0.944000
v -0.944000 -0.944000 -1.000000
v -0.944000 1.000000 -0.944000
v -0.944000 0.944000 -1.000000
v -1.000000 0.944000 -0.944000
v 0.944000 -1.000000 0.944000
v 1.000000 -0.944000 0.944000
v 0.944000 -0.944000 1.000000
v 0.944000 1.000000 0.944000
v 0.944000 0.944000 1.000000
v 1.000000 0.944000 0.944000
v 0.944000 -1.000000 -0.944000
v 0.944000 -0.944000 -1.000000
v 1.000000 -0.944000 -0.944000
v 0.944000 1.000000 -0.944000
v 1.000000 0.944000 -0.944000
v 0.944000 0.944000 -1.000000
vt 0.618000 0.757000
vt 0.382000 0.993000
vt 0.382000 0.757000
vt 0.618000 0.507000
vt 0.382000 0.743000
vt 0.382000 0.507000
vt 0.868000 0.507000
vt 0.632000 0.743000
vt 0.632000 0.507000
vt 0.618000 0.007000
vt 0.382000 0.243000
vt 0.382000 0.007000
vt 0.618000 0.257000
vt 0.382000 0.493000
vt 0.382000 0.257000
vt 0.132000 0.743000
vt 0.132000 0.750000
vt 0.125000 0.743000
vt 0.618000 0.993000
vt 0.625000 0.993000
vt 0.618000 1.000000
vt 0.132000 0.507000
vt 0.125000 0.507000
vt 0.132000 0.500000
vt 0.868000 0.500000
vt 0.875000 0.507000
vt 0.368000 0.743000
vt 0.375000 0.743000
vt 0.368000 0.750000
vt 0.632000 0.750000
vt 0.625000 0.743000
vt 0.368000 0.507000
vt 0.368000 0.500000
vt 0.375000 0.507000
vt 0.625000 0.507000
vt 0.632000 0.500000
vt 0.382000 1.000000
vt 0.875000 0.743000
vt 0.868000 0.743000
vt 0.618000 0.243000
vt 0.618000 0.493000
vt 0.618000 0.743000
vt 0.868000 0.750000
vn 0.3416 0.3416 0.8756
vn -0.3416 -0.3416 0.8756
vn 0.3416 -0.3416 0.8756
vn 0.8756 0.3416 -0.3416
vn 0.8756 -0.3416 0.3416
vn 0.8756 -0.3416 -0.3416
vn -0.3416 0.8756 -0.3416
vn 0.3416 0.8756 0.3416
vn 0.3416 0.8756 -0.3416
vn -0.8756 0.3416 0.3416
vn -0.8756 -0.3416 -0.3416
vn -0.8756 -0.3416 0.3416
vn -0.3416 0.3416 -0.8756
vn 0.3416 -0.3416 -0.8756
vn -0.3416 -0.3416 -0.8756
vn -0.3416 -0.8756 0.3416
vn -0.3416 0.3416 0.8756
vn -0.3416 0.8756 0.3416
vn -0.3416 -0.8756 -0.3416
vn -0.8756 0.3416 -0.3416
vn 0.3416 -0.8756 0.3416
vn 0.8756 0.3416 0.3416
vn 0.3416 -0.8756 -0.3416
vn 0.3416 0.3416 -0.8756
s 1
f 17/1/1 2/2/2 15/3/3
f 23/4/4 14/5/5 21/6/6
f 10/7/7 16/8/8 22/9/9
f 6/10/10 8/11/11 3/12/12
f 11/13/13 20/14/14 9/15/15
f 1/16/16 2/17/2 3/18/12
f 4/19/17 5/20/18 6/21/10
f 7/22/19 8/23/11 9/24/15
f 10/7/7 11/25/13 12/26/20
f 13/27/21 14/28/5 15/29/3
f 16/8/8 17/30/1 18/31/22
f 19/32/23 20/33/14 21/34/6
f 22/9/9 23/35/4 24/36/24
f 1/16/16 8/23/11 7/22/19
f 4/19/17 3/37/12 2/2/2
f 10/7/7 6/38/10 5/39/18
f 9/15/15 12/40/20 11/13/13
f 7/22/19 20/33/14 19/32/23
f 22/9/9 11/25/13 10/7/7
f 21/6/6 24/41/24 23/4/4
f 19/32/23 14/5/5 13/27/21
f 16/8/8 23/4/4 22/9/9
f 15/3/3 18/42/22 17/1/1
f 13/27/21 2/17/2 1/16/16
f 5/39/18 17/30/1 16/8/8
f 19/32/23 1/16/16 7/22/19
f 17/1/1 4/19/17 2/2/2
f 23/4/4 18/42/22 14/5/5
f 10/7/7 5/39/18 16/8/8
f 6/10/10 12/40/20 8/11/11
f 11/13/13 24/41/24 20/14/14
f 1/16/16 3/18/12 8/23/11
f 4/19/17 6/21/10 3/37/12
f 10/7/7 12/26/20 6/38/10
f 9/15/15 8/11/11 12/40/20
f 7/22/19 9/24/15 20/33/14
f 22/9/9 24/36/24 11/25/13
f 21/6/6 20/14/14 24/41/24
f 19/32/23 21/6/6 14/5/5
f 16/8/8 18/42/22 23/4/4
f 15/3/3 14/5/5 18/42/22
f 13/27/21 15/29/3 2/17/2
f 5/39/18 4/43/17 17/30/1
f 19/32/23 13/27/21 1/16/16
