# Blender v2.83.5 OBJ File: 'BitsEngine_Game_Env.blend'
# www.blender.org
o 2x2_wall_corner_round_style_test_Cylinder.001
v 0.000000 0.000000 -2.029025
v 0.000000 3.000000 -2.029025
v 0.395843 0.000000 -1.990038
v 0.395843 3.000000 -1.990038
v 0.776474 0.000000 -1.874575
v 0.776474 3.000000 -1.874575
v 1.127266 0.000000 -1.687073
v 1.127266 3.000000 -1.687073
v 1.434738 0.000000 -1.434738
v 1.434738 3.000000 -1.434738
v 1.687073 0.000000 -1.127266
v 1.687073 3.000000 -1.127266
v 1.874575 0.000000 -0.776474
v 1.874575 3.000000 -0.776474
v 1.990038 0.000000 -0.395843
v 1.990038 3.000000 -0.395843
v 2.029025 0.000000 -0.000000
v 2.029025 3.000000 -0.000000
v 1.990038 0.000000 0.395843
v 1.990038 3.000000 0.395843
v 1.874575 0.000000 0.776474
v 1.874575 3.000000 0.776474
v 1.687073 0.000000 1.127266
v 1.687073 3.000000 1.127266
v 1.434738 0.000000 1.434738
v 1.434738 3.000000 1.434738
v 1.127266 0.000000 1.687073
v 1.127266 3.000000 1.687073
v 0.776474 0.000000 1.874575
v 0.776474 3.000000 1.874575
v 0.395843 0.000000 1.990038
v 0.395843 3.000000 1.990038
v -0.000001 0.000000 2.029025
v -0.000001 3.000000 2.029025
v -0.395844 0.000000 1.990038
v -0.395844 3.000000 1.990038
v -0.776475 0.000000 1.874575
v -0.776475 3.000000 1.874575
v -1.127267 0.000000 1.687072
v -1.127267 3.000000 1.687072
v -1.434739 0.000000 1.434737
v -1.434739 3.000000 1.434737
v -1.687074 0.000000 1.127265
v -1.687074 3.000000 1.127265
v -1.874576 0.000000 0.776473
v -1.874576 3.000000 0.776473
v -1.990039 0.000000 0.395841
v -1.990039 3.000000 0.395841
v -2.029025 0.000000 -0.000002
v -2.029025 3.000000 -0.000002
v -1.990038 0.000000 -0.395845
v -1.990038 3.000000 -0.395845
v -1.874574 0.000000 -0.776477
v -1.874574 3.000000 -0.776477
v -1.687072 0.000000 -1.127268
v -1.687072 3.000000 -1.127268
v -1.434736 0.000000 -1.434739
v -1.434736 3.000000 -1.434739
v -1.127264 0.000000 -1.687074
v -1.127264 3.000000 -1.687074
v -0.776472 0.000000 -1.874576
v -0.776472 3.000000 -1.874576
v -0.395840 0.000000 -1.990039
v -0.395840 3.000000 -1.990039
vt 1.000000 1.000000
vt 0.968750 0.002922
vt 1.000000 0.002922
vt 0.968750 1.000000
vt 0.937500 0.002922
vt 0.937500 1.000000
vt 0.906250 0.002922
vt 0.906250 1.000000
vt 0.875000 0.002922
vt 0.875000 1.000000
vt 0.843750 0.002922
vt 0.843750 1.000000
vt 0.812500 0.002922
vt 0.812500 1.000000
vt 0.781250 0.002922
vt 0.781250 1.000000
vt 0.750000 0.002922
vt 0.750000 1.000000
vt 0.718750 0.002922
vt 0.718750 1.000000
vt 0.687500 0.002922
vt 0.687500 1.000000
vt 0.656250 0.002922
vt 0.656250 1.000000
vt 0.625000 0.002922
vt 0.625000 1.000000
vt 0.593750 0.002922
vt 0.593750 1.000000
vt 0.562500 0.002922
vt 0.562500 1.000000
vt 0.531250 0.002922
vt 0.531250 1.000000
vt 0.500000 0.002922
vt 0.500000 1.000000
vt 0.468750 0.002922
vt 0.468750 1.000000
vt 0.437500 0.002922
vt 0.437500 1.000000
vt 0.406250 0.002922
vt 0.406250 1.000000
vt 0.375000 0.002922
vt 0.375000 1.000000
vt 0.343750 0.002922
vt 0.343750 1.000000
vt 0.312500 0.002922
vt 0.312500 1.000000
vt 0.281250 0.002922
vt 0.281250 1.000000
vt 0.250000 0.002922
vt 0.250000 1.000000
vt 0.218750 0.002922
vt 0.218750 1.000000
vt 0.187500 0.002922
vt 0.187500 1.000000
vt 0.156250 0.002922
vt 0.156250 1.000000
vt 0.125000 0.002922
vt 0.125000 1.000000
vt 0.093750 0.002922
vt 0.093750 1.000000
vt 0.062500 0.002922
vt 0.365735 0.897848
vt 0.275043 0.952870
vt 0.247532 0.771485
vt 0.062500 1.000000
vt 0.031250 0.002922
vt 0.031250 1.000000
vt 0.000000 0.002922
vt 0.254830 0.749639
vt 0.287180 0.706408
vt 0.264120 0.731060
vt 0.275043 0.716463
vt 0.300065 0.701282
vt 0.313202 0.701282
vt 0.326087 0.706408
vt 0.338224 0.716463
vt 0.349147 0.731060
vt 0.358436 0.749639
vt 0.365735 0.771485
vt 0.370763 0.795760
vt 0.373325 0.821529
vt 0.373325 0.847804
vt 0.370763 0.873573
vt 0.358437 0.919694
vt 0.349147 0.938273
vt 0.338224 0.952870
vt 0.326087 0.962925
vt 0.313202 0.968051
vt 0.300065 0.968051
vt 0.287180 0.962925
vt 0.264120 0.938273
vt 0.254830 0.919694
vt 0.247532 0.897848
vt 0.242504 0.873573
vt 0.239941 0.847804
vt 0.239941 0.821529
vt 0.242504 0.795760
vt 0.000000 1.000000
vn -0.0000 0.0000 -1.0000
vn 0.1951 0.0000 -0.9808
vn 0.3827 0.0000 -0.9239
vn 0.5556 0.0000 -0.8315
vn 0.7071 0.0000 -0.7071
vn 0.8315 0.0000 -0.5556
vn 0.9239 0.0000 -0.3827
vn 0.9808 0.0000 -0.1951
vn 1.0000 0.0000 -0.0000
vn 0.9808 0.0000 0.1951
vn 0.9239 0.0000 0.3827
vn 0.8315 0.0000 0.5556
vn 0.7071 0.0000 0.7071
vn 0.5556 0.0000 0.8315
vn 0.3827 0.0000 0.9239
vn 0.1951 0.0000 0.9808
vn -0.0000 0.0000 1.0000
vn -0.1951 0.0000 0.9808
vn -0.3827 0.0000 0.9239
vn -0.5556 0.0000 0.8315
vn -0.7071 0.0000 0.7071
vn -0.8315 0.0000 0.5556
vn -0.9239 0.0000 0.3827
vn -0.9808 0.0000 0.1951
vn -1.0000 0.0000 -0.0000
vn -0.9808 0.0000 -0.1951
vn -0.9239 0.0000 -0.3827
vn -0.8315 0.0000 -0.5556
vn -0.7071 0.0000 -0.7071
vn -0.5556 0.0000 -0.8315
vn -0.3827 0.0000 -0.9239
vn 0.0000 1.0000 0.0000
vn -0.1951 0.0000 -0.9808
s 1
f 2/1/1 3/2/2 1/3/1
f 4/4/2 5/5/3 3/2/2
f 6/6/3 7/7/4 5/5/3
f 8/8/4 9/9/5 7/7/4
f 10/10/5 11/11/6 9/9/5
f 12/12/6 13/13/7 11/11/6
f 14/14/7 15/15/8 13/13/7
f 16/16/8 17/17/9 15/15/8
f 18/18/9 19/19/10 17/17/9
f 20/20/10 21/21/11 19/19/10
f 22/22/11 23/23/12 21/21/11
f 24/24/12 25/25/13 23/23/12
f 26/26/13 27/27/14 25/25/13
f 28/28/14 29/29/15 27/27/14
f 30/30/15 31/31/16 29/29/15
f 32/32/16 33/33/17 31/31/16
f 34/34/17 35/35/18 33/33/17
f 36/36/18 37/37/19 35/35/18
f 38/38/19 39/39/20 37/37/19
f 40/40/20 41/41/21 39/39/20
f 42/42/21 43/43/22 41/41/21
f 44/44/22 45/45/23 43/43/22
f 46/46/23 47/47/24 45/45/23
f 48/48/24 49/49/25 47/47/24
f 50/50/25 51/51/26 49/49/25
f 52/52/26 53/53/27 51/51/26
f 54/54/27 55/55/28 53/53/27
f 56/56/28 57/57/29 55/55/28
f 58/58/29 59/59/30 57/57/29
f 60/60/30 61/61/31 59/59/30
f 38/62/32 22/63/32 6/64/32
f 62/65/31 63/66/33 61/61/31
f 64/67/33 1/68/1 63/66/33
f 2/1/1 4/4/2 3/2/2
f 4/4/2 6/6/3 5/5/3
f 6/6/3 8/8/4 7/7/4
f 8/8/4 10/10/5 9/9/5
f 10/10/5 12/12/6 11/11/6
f 12/12/6 14/14/7 13/13/7
f 14/14/7 16/16/8 15/15/8
f 16/16/8 18/18/9 17/17/9
f 18/18/9 20/20/10 19/19/10
f 20/20/10 22/22/11 21/21/11
f 22/22/11 24/24/12 23/23/12
f 24/24/12 26/26/13 25/25/13
f 26/26/13 28/28/14 27/27/14
f 28/28/14 30/30/15 29/29/15
f 30/30/15 32/32/16 31/31/16
f 32/32/16 34/34/17 33/33/17
f 34/34/17 36/36/18 35/35/18
f 36/36/18 38/38/19 37/37/19
f 38/38/19 40/40/20 39/39/20
f 40/40/20 42/42/21 41/41/21
f 42/42/21 44/44/22 43/43/22
f 44/44/22 46/46/23 45/45/23
f 46/46/23 48/48/24 47/47/24
f 48/48/24 50/50/25 49/49/25
f 50/50/25 52/52/26 51/51/26
f 52/52/26 54/54/27 53/53/27
f 54/54/27 56/56/28 55/55/28
f 56/56/28 58/58/29 57/57/29
f 58/58/29 60/60/30 59/59/30
f 60/60/30 62/65/31 61/61/31
f 6/64/32 4/69/32 62/70/32
f 4/69/32 2/71/32 62/70/32
f 2/71/32 64/72/32 62/70/32
f 62/70/32 60/73/32 58/74/32
f 58/74/32 56/75/32 54/76/32
f 54/76/32 52/77/32 50/78/32
f 50/78/32 48/79/32 46/80/32
f 46/80/32 44/81/32 42/82/32
f 42/82/32 40/83/32 46/80/32
f 40/83/32 38/62/32 46/80/32
f 38/62/32 36/84/32 34/85/32
f 34/85/32 32/86/32 30/87/32
f 30/87/32 28/88/32 22/63/32
f 28/88/32 26/89/32 22/63/32
f 26/89/32 24/90/32 22/63/32
f 22/63/32 20/91/32 18/92/32
f 18/92/32 16/93/32 14/94/32
f 14/94/32 12/95/32 10/96/32
f 10/96/32 8/97/32 6/64/32
f 62/70/32 58/74/32 6/64/32
f 58/74/32 54/76/32 6/64/32
f 54/76/32 50/78/32 46/80/32
f 38/62/32 34/85/32 30/87/32
f 22/63/32 18/92/32 14/94/32
f 14/94/32 10/96/32 6/64/32
f 54/76/32 46/80/32 38/62/32
f 38/62/32 30/87/32 22/63/32
f 22/63/32 14/94/32 6/64/32
f 6/64/32 54/76/32 38/62/32
f 62/65/31 64/67/33 63/66/33
f 64/67/33 2/98/1 1/68/1
