# Blender v2.83.5 OBJ File: 'BitsEngine_Game_Env.blend'
# www.blender.org
o 2x2_plane_extruded_Plane.002
v -2.000000 0.000000 2.000000
v 2.000000 0.000000 2.000000
v -2.000000 0.000000 -2.000000
v 2.000000 0.000000 -2.000000
v -2.000000 -0.597702 2.000000
v 2.000000 -0.597702 2.000000
v -2.000000 -0.597702 -2.000000
v 2.000000 -0.597702 -2.000000
vt 1.000000 0.000000
vt 0.000000 1.000000
vt 0.000000 0.000000
vt 0.000000 1.000000
vt 1.000000 0.000000
vt 0.000000 0.000000
vt 1.000000 0.425287
vt 0.000000 0.574713
vt 1.000000 0.574713
vt 0.000000 0.425287
vt 1.000000 0.574713
vt 0.000000 0.574713
vt 0.000000 0.425287
vt 0.000000 0.574713
vt 1.000000 0.425287
vt 1.000000 0.574713
vt 1.000000 1.000000
vt 1.000000 1.000000
vt 0.000000 0.425287
vt 1.000000 0.425287
vn 0.0000 1.0000 0.0000
vn 0.0000 -1.0000 0.0000
vn 0.0000 0.0000 -1.0000
vn 0.0000 0.0000 1.0000
vn 1.0000 0.0000 0.0000
vn -1.0000 0.0000 0.0000
s off
f 2/1/1 3/2/1 1/3/1
f 7/4/2 6/5/2 5/6/2
f 8/7/3 3/8/3 4/9/3
f 5/10/4 2/11/4 1/12/4
f 6/13/5 4/9/5 2/14/5
f 7/15/6 1/12/6 3/16/6
f 2/1/1 4/17/1 3/2/1
f 7/4/2 8/18/2 6/5/2
f 8/7/3 7/19/3 3/8/3
f 5/10/4 6/20/4 2/11/4
f 6/13/5 8/7/5 4/9/5
f 7/15/6 5/10/6 1/12/6
