# Blender v2.83.5 OBJ File: 'BitsEngine_Game_Env.blend'
# www.blender.org
o 2x2_wall_straight_Plane.004
v -0.666667 0.000000 2.000000
v 0.666667 0.000000 2.000000
v 0.666667 0.000000 -2.000000
v -0.666667 0.000000 -2.000000
v -0.666667 3.000000 2.000000
v 0.666667 3.000000 2.000000
v 0.666667 3.000000 -2.000000
v -0.666667 3.000000 -2.000000
vt 1.000000 0.178571
vt 0.000000 0.928571
vt 0.000000 0.178571
vt 0.666667 0.000000
vt 0.333333 1.000000
vt 0.333333 0.000000
vt 0.333333 0.178571
vt 0.666667 0.928571
vt 0.666667 0.178571
vt 0.666667 0.178571
vt 0.333333 0.928571
vt 0.333333 0.178571
vt 0.000000 0.178571
vt 1.000000 0.928571
vt 1.000000 0.178571
vt 1.000000 0.928571
vt 0.666667 1.000000
vt 0.333333 0.928571
vt 0.666667 0.928571
vt 0.000000 0.928571
vn 1.0000 0.0000 0.0000
vn 0.0000 1.0000 0.0000
vn 0.0000 0.0000 -1.0000
vn 0.0000 0.0000 1.0000
vn -1.0000 0.0000 0.0000
s off
f 3/1/1 6/2/1 2/3/1
f 6/4/2 8/5/2 5/6/2
f 4/7/3 7/8/3 3/9/3
f 2/10/4 5/11/4 1/12/4
f 1/13/5 8/14/5 4/15/5
f 3/1/1 7/16/1 6/2/1
f 6/4/2 7/17/2 8/5/2
f 4/7/3 8/18/3 7/8/3
f 2/10/4 6/19/4 5/11/4
f 1/13/5 5/20/5 8/14/5
