# Blender v2.83.5 OBJ File: 'BitsEngine_Game_Env.blend'
# www.blender.org
o 2x2_wall_corner_Plane.005
v -2.000000 0.000000 2.000000
v 2.000000 0.000000 2.000000
v -2.000000 0.000000 -2.000000
v 2.000000 0.000000 -2.000000
v -2.000000 3.000000 2.000000
v 2.000000 3.000000 2.000000
v -2.000000 3.000000 -2.000000
v 2.000000 3.000000 -2.000000
vt 0.000000 1.000000
vt 1.000000 0.000000
vt 0.000000 0.000000
vt 1.000000 0.000000
vt 0.000000 1.000000
vt 0.000000 0.000000
vt 1.000000 0.125000
vt 0.000000 0.875000
vt 0.000000 0.125000
vt 0.000000 0.125000
vt 1.000000 0.875000
vt 1.000000 0.125000
vt 0.000000 0.125000
vt 1.000000 0.875000
vt 1.000000 0.125000
vt 0.000000 0.875000
vt 1.000000 1.000000
vt 1.000000 1.000000
vt 0.000000 0.875000
vt 1.000000 0.875000
vn 0.0000 -1.0000 0.0000
vn 0.0000 1.0000 0.0000
vn 1.0000 0.0000 0.0000
vn -1.0000 0.0000 0.0000
vn 0.0000 0.0000 -1.0000
vn 0.0000 0.0000 1.0000
s off
f 3/1/1 2/2/1 1/3/1
f 6/4/2 7/5/2 5/6/2
f 4/7/3 6/8/3 2/9/3
f 1/10/4 7/11/4 3/12/4
f 3/13/5 8/14/5 4/7/5
f 2/15/6 5/16/6 1/10/6
f 3/1/1 4/17/1 2/2/1
f 6/4/2 8/18/2 7/5/2
f 4/7/3 8/14/3 6/8/3
f 1/10/4 5/16/4 7/11/4
f 3/13/5 7/19/5 8/14/5
f 2/15/6 6/20/6 5/16/6
